<svg xmlns="http://www.w3.org/2000/svg" viewBox="0 0 1200 300" fill="none" stroke="#9aa3ad" stroke-width="2" stroke-linecap="round" stroke-linejoin="round">
  <path d="M20 210 Q120 160 220 185 Q320 215 420 190 Q520 165 620 185 Q720 210 820 175 Q920 140 1100 170" />
  <path d="M40 230 Q140 200 240 215 Q340 235 440 220 Q540 205 640 220 Q740 235 840 210 Q940 185 1140 200" />
  <path d="M60 245 Q140 235 220 245 Q300 255 380 248 Q460 240 540 248 Q620 255 700 248 Q780 240 860 248 Q940 255 1120 245" />
  <rect x="140" y="150" width="80" height="90" />
  <rect x="240" y="135" width="90" height="105" />
  <rect x="350" y="120" width="110" height="120" />
  <rect x="480" y="110" width="80" height="130" />
  <rect x="580" y="140" width="120" height="100" />
  <rect x="720" y="130" width="140" height="110" />
  <rect x="880" y="150" width="90" height="90" />
  <rect x="990" y="160" width="70" height="80" />
  <path d="M510 110 L520 80 L530 110" />
  <path d="M300 135 Q310 110 320 135" />
  <path d="M290 135 L330 135" />
  <path d="M180 240 Q200 220 220 240" />
  <path d="M740 240 Q760 220 780 240" />
  <path d="M920 240 Q940 220 960 240" />
</svg>
